<?xml version="1.0" encoding="UTF-8" standalone="no"?>
<svg
   xmlns:dc="http://purl.org/dc/elements/1.1/"
   xmlns:cc="http://creativecommons.org/ns#"
   xmlns:rdf="http://www.w3.org/1999/02/22-rdf-syntax-ns#"
   xmlns:svg="http://www.w3.org/2000/svg"
   xmlns="http://www.w3.org/2000/svg"
   xmlns:xlink="http://www.w3.org/1999/xlink"
   xmlns:sodipodi="http://sodipodi.sourceforge.net/DTD/sodipodi-0.dtd"
   xmlns:inkscape="http://www.inkscape.org/namespaces/inkscape"
   width="240.60983"
   height="50"
   viewBox="0 0 63.661352 13.229166"
   version="1.1"
   id="svg2148"
   inkscape:version="1.0 (6e3e5246a0, 2020-05-07)"
   sodipodi:docname="logo.svg">
  <defs
     id="defs2142">
    <linearGradient
       inkscape:collect="always"
       xlink:href="#linearGradient4663"
       id="linearGradient4827"
       gradientUnits="userSpaceOnUse"
       x1="55.887104"
       y1="-89.125481"
       x2="80.244858"
       y2="-112.18299" />
    <linearGradient
       inkscape:collect="always"
       id="linearGradient4663">
      <stop
         style="stop-color:#0c9fc4;stop-opacity:1"
         offset="0"
         id="stop4659" />
      <stop
         id="stop4667"
         offset="0.43380794"
         style="stop-color:#4551b5;stop-opacity:1" />
      <stop
         style="stop-color:#e6176b;stop-opacity:1"
         offset="1"
         id="stop4661" />
    </linearGradient>
    <linearGradient
       inkscape:collect="always"
       xlink:href="#linearGradient4663"
       id="linearGradient4797"
       gradientUnits="userSpaceOnUse"
       x1="53.952335"
       y1="-88.459923"
       x2="87.948578"
       y2="-74.027657" />
    <rect
       x="217.13835"
       y="-380.45874"
       width="211.56581"
       height="65.941132"
       id="rect4941" />
    <rect
       x="217.13835"
       y="-380.45874"
       width="211.56581"
       height="65.941132"
       id="rect1959" />
    <linearGradient
       inkscape:collect="always"
       xlink:href="#linearGradient4663"
       id="linearGradient2847"
       gradientUnits="userSpaceOnUse"
       x1="53.952335"
       y1="-88.459923"
       x2="87.948578"
       y2="-74.027657" />
    <linearGradient
       inkscape:collect="always"
       xlink:href="#linearGradient4663"
       id="linearGradient2849"
       gradientUnits="userSpaceOnUse"
       x1="53.952335"
       y1="-88.459923"
       x2="87.948578"
       y2="-74.027657" />
    <linearGradient
       inkscape:collect="always"
       xlink:href="#linearGradient4663"
       id="linearGradient2851"
       gradientUnits="userSpaceOnUse"
       x1="53.952335"
       y1="-88.459923"
       x2="87.948578"
       y2="-74.027657" />
    <linearGradient
       inkscape:collect="always"
       xlink:href="#linearGradient4663"
       id="linearGradient2853"
       gradientUnits="userSpaceOnUse"
       x1="53.952335"
       y1="-88.459923"
       x2="87.948578"
       y2="-74.027657" />
    <linearGradient
       inkscape:collect="always"
       xlink:href="#linearGradient4663"
       id="linearGradient2855"
       gradientUnits="userSpaceOnUse"
       x1="53.952335"
       y1="-88.459923"
       x2="87.948578"
       y2="-74.027657" />
    <linearGradient
       inkscape:collect="always"
       xlink:href="#linearGradient4663"
       id="linearGradient2857"
       gradientUnits="userSpaceOnUse"
       x1="53.952335"
       y1="-88.459923"
       x2="87.948578"
       y2="-74.027657" />
    <linearGradient
       inkscape:collect="always"
       xlink:href="#linearGradient4663"
       id="linearGradient2859"
       gradientUnits="userSpaceOnUse"
       x1="53.952335"
       y1="-88.459923"
       x2="87.948578"
       y2="-74.027657" />
    <linearGradient
       inkscape:collect="always"
       xlink:href="#linearGradient4663"
       id="linearGradient2861"
       gradientUnits="userSpaceOnUse"
       x1="53.952335"
       y1="-88.459923"
       x2="87.948578"
       y2="-74.027657" />
    <linearGradient
       inkscape:collect="always"
       xlink:href="#linearGradient4663"
       id="linearGradient2863"
       gradientUnits="userSpaceOnUse"
       x1="53.952335"
       y1="-88.459923"
       x2="87.948578"
       y2="-74.027657" />
    <linearGradient
       inkscape:collect="always"
       xlink:href="#linearGradient4663"
       id="linearGradient2865"
       gradientUnits="userSpaceOnUse"
       x1="53.952335"
       y1="-88.459923"
       x2="87.948578"
       y2="-74.027657" />
    <linearGradient
       inkscape:collect="always"
       xlink:href="#linearGradient4663"
       id="linearGradient2867"
       gradientUnits="userSpaceOnUse"
       x1="53.952335"
       y1="-88.459923"
       x2="87.948578"
       y2="-74.027657" />
    <linearGradient
       inkscape:collect="always"
       xlink:href="#linearGradient4663"
       id="linearGradient2869"
       gradientUnits="userSpaceOnUse"
       x1="53.952335"
       y1="-88.459923"
       x2="87.948578"
       y2="-74.027657" />
    <linearGradient
       inkscape:collect="always"
       xlink:href="#linearGradient4663"
       id="linearGradient2871"
       gradientUnits="userSpaceOnUse"
       x1="53.952335"
       y1="-88.459923"
       x2="87.948578"
       y2="-74.027657" />
    <linearGradient
       inkscape:collect="always"
       xlink:href="#linearGradient4663"
       id="linearGradient2873"
       gradientUnits="userSpaceOnUse"
       x1="53.952335"
       y1="-88.459923"
       x2="87.948578"
       y2="-74.027657" />
  </defs>
  <sodipodi:namedview
     fit-margin-bottom="0"
     fit-margin-right="0"
     fit-margin-left="0"
     fit-margin-top="0"
     id="base"
     pagecolor="#ffffff"
     bordercolor="#666666"
     borderopacity="1.0"
     inkscape:pageopacity="0.0"
     inkscape:pageshadow="2"
     inkscape:zoom="1.979899"
     inkscape:cx="115.29556"
     inkscape:cy="15.734272"
     inkscape:document-units="mm"
     inkscape:current-layer="layer1"
     inkscape:document-rotation="0"
     showgrid="false"
     units="px"
     inkscape:window-width="1439"
     inkscape:window-height="1023"
     inkscape:window-x="198"
     inkscape:window-y="27"
     inkscape:window-maximized="0" />
  <metadata
     id="metadata2145">
    <rdf:RDF>
      <cc:Work
         rdf:about="">
        <dc:format>image/svg+xml</dc:format>
        <dc:type
           rdf:resource="http://purl.org/dc/dcmitype/StillImage" />
        <dc:title></dc:title>
      </cc:Work>
    </rdf:RDF>
  </metadata>
  <g
     transform="translate(-72.670236,-111.65945)"
     inkscape:label="Layer 1"
     inkscape:groupmode="layer"
     id="layer1">
    <g
       transform="matrix(0.25727308,0,0,0.25727308,97.575568,189.48009)"
       inkscape:export-ydpi="100"
       inkscape:export-xdpi="100"
       id="g1790">
      <g
         transform="translate(-137.7244,-194.39607)"
         style="fill:url(#linearGradient4827);fill-opacity:1"
         id="g4731">
        <path
           sodipodi:nodetypes="ccccccccc"
           id="path4701"
           d="m 99.082448,-95.529004 -16.153526,13.606046 c 0,0 -0.620729,0.597834 -1.454351,0.217072 0,0 -1.524545,-0.507637 -2.726399,0.943329 0,0 -0.468403,0.58319 -1.02606,0.507614 l -2.238404,-0.114308 c 0,0 -1.340892,-0.0058 -0.174567,-0.838102 l 23.254487,-14.990244 c 0,0 1.726972,-0.816715 0.51882,0.668593 z"
           style="fill:url(#linearGradient2847);fill-opacity:1;stroke:none;stroke-width:0.264583px;stroke-linecap:butt;stroke-linejoin:miter;stroke-opacity:1" />
        <path
           style="fill:url(#linearGradient2849);fill-opacity:1;stroke:none;stroke-width:0.268843px;stroke-linecap:butt;stroke-linejoin:miter;stroke-opacity:1"
           d="m 93.248808,-60.53507 -18.12599,-18.138429 c 0,0 -0.700322,-0.766421 0.319794,-0.643908 l 2.132344,0.08475 c 0,0 0.753343,0.06177 0.921882,0.890065 0,0 0.834451,1.672968 2.823251,1.318018 0,0 0.861039,-0.143564 1.048239,0.324523 l 11.43707,15.727068 c 0,0 0.87342,1.442089 -0.55659,0.437885 z"
           id="path4703"
           sodipodi:nodetypes="cccccccccc" />
        <path
           sodipodi:nodetypes="ccsccccccc"
           style="fill:url(#linearGradient2851);fill-opacity:1;stroke:none;stroke-width:0.277511px;stroke-linecap:butt;stroke-linejoin:miter;stroke-opacity:1"
           d="m 59.97055,-57.566373 9.485725,-17.416706 c 0,0 0.717423,-2.077974 1.220124,-0.04621 l 0.445825,1.801878 c 0,0 0.117145,0.760207 -0.292319,1.038636 0,0 -1.853044,1.363297 -0.481063,3.351074 0,0 0.40273,0.566553 -0.0954,1.067316 l -9.57938,10.599092 c 0,0 -1.312289,1.366899 -0.703517,-0.395076 z"
           id="path4705" />
        <path
           sodipodi:nodetypes="cccccccccc"
           id="path4707"
           d="M 92.587258,-59.554674 72.40108,-75.903022 c 0,0 -0.981512,-1.064993 -0.616291,0.389488 l 0.307581,2.138072 c 0,0 0.156789,0.678322 0.993925,0.834879 0,0 2.101432,0.284591 1.722573,2.800115 0,0 -0.155713,0.678606 0.402259,0.979188 l 16.992351,9.812943 c 0,0 1.54578,0.728211 0.38379,-0.60634 z"
           style="fill:url(#linearGradient2853);fill-opacity:1;stroke:none;stroke-width:0.272402px;stroke-linecap:butt;stroke-linejoin:miter;stroke-opacity:1" />
        <path
           sodipodi:nodetypes="cccccccccc"
           id="path4709"
           d="m 61.996554,-107.14096 0.314081,16.966851 c -0.102439,0.86841 0.71079,1.19022 0.71079,1.19022 1.550333,0.943353 1.107846,2.33875 1.107846,2.33875 -0.172969,1.043012 0.636689,1.462623 0.636689,1.462623 l 1.505507,1.113647 c 1.425191,1.400283 1.032132,-0.62831 1.032132,-0.62831 l -4.75493,-22.711131 c 0,0 -0.536793,-0.68569 -0.551905,0.26778 z"
           style="fill:url(#linearGradient2855);fill-opacity:1;stroke:none;stroke-width:0.264583px;stroke-linecap:butt;stroke-linejoin:miter;stroke-opacity:1" />
        <path
           sodipodi:nodetypes="ccccccccc"
           style="fill:url(#linearGradient2857);fill-opacity:1;stroke:none;stroke-width:0.268915px;stroke-linecap:butt;stroke-linejoin:miter;stroke-opacity:1"
           d="m 41.770356,-83.469422 16.538206,-2.434059 c 0.891872,-0.313308 1.257746,0.261432 1.257746,0.261432 1.211898,1.6542 2.903567,1.02457 2.903567,1.02457 0.916964,-0.386722 1.436058,0.192138 1.436058,0.192138 l 1.796023,1.350078 c 0.898882,0.675708 -0.342185,0.742865 -0.342185,0.742865 L 41.792355,-82.90747 c 0,0 -1.664778,-0.145152 -0.022,-0.561952 z"
           id="path4711" />
        <circle
           style="fill:url(#linearGradient2859);fill-opacity:1;stroke:none;stroke-width:0"
           id="circle4713"
           cx="61.755337"
           cy="-86.79847"
           r="1.3890625" />
        <path
           id="path4715"
           d="m 41.581037,-81.09986 15.776192,4.153146 c 0.826242,0.387417 1.25998,-0.08508 1.25998,-0.08508 1.26809,-1.486361 3.024634,-0.566962 3.024634,-0.566962 0.661357,0.351092 1.365109,-0.0092 1.365109,-0.0092 l 1.930862,-0.99853 c 0.966368,-0.499752 -0.233082,-0.707707 -0.233082,-0.707707 L 41.6782,-81.601827 c 0,0 -1.640661,-0.06769 -0.09716,0.501949 z"
           style="fill:url(#linearGradient2861);fill-opacity:1;stroke:none;stroke-width:0.253745px;stroke-linecap:butt;stroke-linejoin:miter;stroke-opacity:1"
           inkscape:transform-center-x="-1.2118009"
           inkscape:transform-center-y="1.4217217"
           sodipodi:nodetypes="cccccsccsc" />
        <path
           id="path4717"
           d="m 58.809756,-58.195954 7.616615,-18.814694 c 0,0 0.420938,-1.51743 -0.770534,-0.912632 l -1.732414,0.916145 c 0,0 -1.319174,0.479688 -1.193491,0.95834 0,0 0.24422,2.563079 -1.83121,3.010707 0,0 -0.709703,0.191199 -0.626535,0.881405 l -2.24313,13.724257 c 0,0 -0.222018,1.886587 0.780701,0.236472 z"
           style="fill:url(#linearGradient2863);fill-opacity:1;stroke:none;stroke-width:0.281722px;stroke-linecap:butt;stroke-linejoin:miter;stroke-opacity:1"
           sodipodi:nodetypes="ccccccccsc" />
        <circle
           r="1.3890625"
           cy="-75.386436"
           cx="60.433567"
           id="circle4719"
           style="fill:url(#linearGradient2865);fill-opacity:1;stroke:none;stroke-width:0" />
        <circle
           style="fill:url(#linearGradient2867);fill-opacity:1;stroke:none;stroke-width:0"
           id="circle4721"
           cx="72.433823"
           cy="-70.104897"
           r="1.3890625" />
        <circle
           r="1.3890625"
           cy="-79.384323"
           cx="80.706329"
           id="circle4723"
           style="fill:url(#linearGradient2869);fill-opacity:1;stroke:none;stroke-width:0" />
        <path
           sodipodi:nodetypes="cccccccccc"
           style="fill:url(#linearGradient2871);fill-opacity:1;stroke:none;stroke-width:0.284739px;stroke-linecap:butt;stroke-linejoin:miter;stroke-opacity:1"
           d="m 64.593374,-107.71119 8.35414,15.336943 c 0.551025,0.732836 -0.13132,1.37898 -0.13132,1.37898 -0.872221,1.604832 0.0428,2.582556 0.0428,2.582556 0.728653,0.897811 0.05625,1.586184 0.05625,1.586184 l -0.969219,1.664323 c -0.639968,1.560026 -1.396477,-0.108629 -1.396477,-0.108629 l -6.66801,-22.436877 c 0,0 0.208243,-0.85046 0.711837,-0.003 z"
           id="path4725" />
        <path
           style="fill:url(#linearGradient2873);fill-opacity:1;stroke:none;stroke-width:0.263868px;stroke-linecap:butt;stroke-linejoin:miter;stroke-opacity:1"
           d="m 97.619058,-97.687966 -19.626731,7.315307 c 0,0 -0.818677,0.243741 -0.900535,1.160728 0,0 -0.179658,1.769443 -2.149336,1.90874 0,0 -0.731307,0.118138 -0.940077,0.642321 l -1.000522,2.009859 c 0,0 -0.624612,1.053451 0.712178,0.677896 l 24.225143,-12.929131 c 0,0 1.54988,-1.099866 -0.32012,-0.78572 z"
           id="path4727"
           sodipodi:nodetypes="cccc" />
        <circle
           style="fill:url(#linearGradient4797);fill-opacity:1;stroke:none;stroke-width:0"
           id="circle4729"
           cx="74.832558"
           cy="-89.559967"
           r="1.3890625" />
      </g>
      <text
         style="font-style:normal;font-variant:normal;font-weight:normal;font-stretch:normal;font-size:19.05px;line-height:1.25;font-family:Conthrax;-inkscape-font-specification:Conthrax;white-space:pre;shape-inside:url(#rect4941);fill:#ffffff;fill-opacity:1;stroke:none;"
         id="text4939"
         xml:space="preserve"
         transform="translate(-260.83716,97.124004)"><tspan
           x="217.13867"
           y="-364.20934"><tspan
             style="font-style:normal;font-variant:normal;font-weight:normal;font-stretch:normal;font-size:19.05px;font-family:Conthrax;-inkscape-font-specification:Conthrax;fill:#ffffff">STARFISH LABS</tspan></tspan></text>
    </g>
  </g>
</svg>
